<svg xmlns="http://www.w3.org/2000/svg" viewBox="0 0 1024 1024">
  <rect x="64" y="64" width="896" height="896" rx="200" fill="#2457D6"/>
  <!-- light beams -->
  <path d="M600 330 L860 250 L860 410 Z" fill="#FFFFFF" opacity="0.28"/>
  <path d="M424 330 L164 250 L164 410 Z" fill="#FFFFFF" opacity="0.28"/>
  <!-- roof -->
  <path d="M400 290 L512 196 L624 290 Z" fill="#FFFFFF"/>
  <!-- lantern -->
  <rect x="424" y="304" width="176" height="96" rx="12" fill="#FFD25A"/>
  <!-- gallery -->
  <rect x="392" y="408" width="240" height="28" rx="10" fill="#FFFFFF"/>
  <!-- tower with stripes -->
  <path d="M432 448 L592 448 L640 800 L384 800 Z" fill="#FFFFFF"/>
  <path d="M422 532 L602 532 L612 604 L412 604 Z" fill="#2457D6" opacity="0.35"/>
  <path d="M403 676 L621 676 L631 748 L393 748 Z" fill="#2457D6" opacity="0.35"/>
  <!-- ground -->
  <rect x="296" y="800" width="432" height="40" rx="14" fill="#FFFFFF"/>
</svg>
